<svg xmlns="http://www.w3.org/2000/svg" id="Capa_1" height="512" viewBox="0 0 512 512" width="512"><g><path d="m462 256-206 256c-141.385 0-256-114.615-256-256s114.615-256 256-256z" fill="#ffda44"></path><g><path d="m256 0c141.385 0 256 114.615 256 256s-114.615 256-256 256z" fill="#ff9f22"></path><path d="m128.5 138.781h63.75v63.75h-63.75z" fill="#ff9f22"></path><path d="m319.75 138.781h63.75v63.75h-63.75z" fill="#ff7c48"></path><path d="m192.25 287.531c0 35.208 28.542 63.75 63.75 63.75l44.693 15.719-44.693 48.031c-70.416 0-127.5-57.084-127.5-127.5z" fill="#ff9f22"></path><path d="m383.5 287.531h-63.75c0 35.208-28.542 63.75-63.75 63.75v63.75c70.416 0 127.5-57.084 127.5-127.5z" fill="#ff7c48"></path></g></g></svg>