<svg xmlns="http://www.w3.org/2000/svg" height="512" viewBox="0 0 64 64" width="512"><path d="M1.992 53.499a1 1 0 01-1-1 7.01 7.01 0 017.002-7.002 1 1 0 110 2 5.008 5.008 0 00-5.002 5.002 1 1 0 01-1 1zM41.992 53.498a1 1 0 01-1-1c0-2.757-2.243-5-5-5a1 1 0 110-2c3.859 0 7 3.141 7 7a1 1 0 01-1 1z"></path><path d="M15.992 47.498l-7.998-.001a1 1 0 110-2l7.998.001a1 1 0 110 2zM35.992 47.498l-8-.001a1 1 0 110-2l8 .001a1 1 0 110 2zM1.992 62.494a1 1 0 01-1-1v-8.995a1 1 0 112 0v8.995a1 1 0 01-1 1zM41.992 62.494a1 1 0 01-1-1v-8.996a1 1 0 112 0v8.996a1 1 0 01-1 1z"></path><path d="M15.992 47.498a1 1 0 01-1-1v-5.25a1 1 0 112 0v5.25a1 1 0 01-1 1zM27.992 47.497a1 1 0 01-1-1v-5.249a1 1 0 112 0v5.249a1 1 0 01-1 1z"></path><path d="M21.992 43.497c-8.822 0-16-7.178-16-16a1 1 0 112 0c0 7.72 6.28 14 14 14 6.758 0 12.547-4.814 13.767-11.447a.999.999 0 111.967.361c-1.394 7.583-8.011 13.086-15.734 13.086z"></path><path d="M6.992 28.497a1 1 0 01-1-1v-3.882a1 1 0 112 0v3.882a1 1 0 01-1 1zM39.992 21.49a1 1 0 01-1-1c0-9.365-7.619-16.984-16.984-16.984S5.023 11.125 5.023 20.49a1 1 0 11-2 0c0-10.468 8.517-18.984 18.984-18.984s18.984 8.517 18.984 18.984a.998.998 0 01-.999 1z"></path><path d="M39.992 42.49a1 1 0 01-1-1V20.496a1 1 0 112 0V41.49a1 1 0 01-1 1z"></path><path d="M39.961 32.496c-.122 0-.246-.022-.366-.069L11.626 21.421a1 1 0 11.733-1.861l27.969 11.006a1 1 0 01-.367 1.93zM3.992 24.49a1 1 0 01-1-1v-2.994a1 1 0 112 0v2.994a1 1 0 01-1 1z"></path><path d="M3.992 42.49a1 1 0 01-1-1v-18a1 1 0 112 0v18a1 1 0 01-1 1z"></path><path d="M5.992 44.49c-1.654 0-3-1.346-3-3a1 1 0 112 0 1 1 0 001 1 1 1 0 110 2z"></path><path d="M15.992 44.49h-10a1 1 0 110-2h10a1 1 0 110 2zM37.992 44.49a1 1 0 110-2 1 1 0 001-1 1 1 0 112 0c0 1.655-1.346 3-3 3z"></path><path d="M37.992 44.49h-10a1 1 0 110-2h10a1 1 0 110 2zM11.992 21.49a1 1 0 01-1-1V5.551a1 1 0 112 0V20.49a1 1 0 01-1 1z"></path><path d="M3.993 26.49a.999.999 0 01-.532-1.848l8-5a.999.999 0 111.061 1.695l-8 5a.988.988 0 01-.529.153zM21.991 51.49a.997.997 0 01-.553-.167l-6-3.992a1 1 0 011.108-1.666l6 3.992a1 1 0 01-.555 1.833z"></path><path d="M21.993 51.49a.998.998 0 01-.555-1.832l6-3.993a.995.995 0 011.386.278.998.998 0 01-.278 1.386l-6 3.993a.98.98 0 01-.553.168zM21.991 55.495a.997.997 0 01-.553-.167l-12-7.984a1 1 0 011.108-1.666l12 7.984a1 1 0 01-.555 1.833z"></path><path d="M21.993 55.495a.998.998 0 01-.555-1.832l12-7.986a.995.995 0 011.386.278.998.998 0 01-.278 1.386l-12 7.986a.988.988 0 01-.553.168zM54.004 40.492c-2.206 0-4-1.794-4-4s1.794-4 4-4 4 1.794 4 4-1.794 4-4 4zm0-6c-1.103 0-2 .897-2 2s.897 2 2 2 2-.897 2-2-.898-2-2-2z"></path><path d="M46 61.495a1 1 0 01-.934-1.356l8.002-21.002a1 1 0 011.869.713l-8.002 21.002a1.003 1.003 0 01-.935.643z"></path><path d="M46 62.494a1 1 0 01-1-1v-9.007a1 1 0 112 0v9.007a1 1 0 01-1 1zM62.008 61.495c-.402 0-.782-.245-.935-.644L53.071 39.85a1.001 1.001 0 011.869-.713l8.002 21.002a1.001 1.001 0 01-.934 1.356z"></path><path d="M46 53.487a1 1 0 01-.934-1.356l5.477-14.377a1 1 0 011.869.713l-5.477 14.377a1.003 1.003 0 01-.935.643zM62.008 53.487c-.402 0-.782-.245-.935-.644l-5.479-14.378a1.001 1.001 0 011.869-.713l5.479 14.378a1.001 1.001 0 01-.934 1.357z"></path><path d="M62.008 62.494a1 1 0 01-1-1v-9.007a1 1 0 112 0v9.007a1 1 0 01-1 1zM54.004 34.492a1 1 0 01-1-1V29.49a1 1 0 112 0v4.002a1 1 0 01-1 1zM58.199 51.496h-8.391a1 1 0 110-2h8.391a1 1 0 110 2zM54.022 37.494c-.553 0-1.005-.447-1.005-1s.442-1 .994-1h.011a1 1 0 110 2z"></path><path d="M54.002 52.49a1 1 0 01-1-1v-1.999a1 1 0 112 0v1.999a1 1 0 01-1 1z"></path></svg>