<svg xmlns="http://www.w3.org/2000/svg" id="e8e97109-dfa3-4bfb-8017-5c62952c4726" data-name="Layer 1" viewBox="0 0 84 66"><g id="f2f6e818-2f39-413f-8d07-4aaa28f741d3" data-name="Website-Chosen-Pages"><path d="M83.5125,0C82.4156,0,82.4156,19.3625,75.51,21.6082a28.0782,28.0782,0,0,0-15.3948,11.367,30.5472,30.5472,0,0,0-36.2525-.032A28.0827,28.0827,0,0,0,8.49,21.6082C1.5844,19.3625,1.5844,0,.4875,0s0,19.1172,0,21.6082S10.6527,33,13.2881,38.1643,18.8613,55.8309,25.782,61.3551A21.1858,21.1858,0,0,0,42,65.8335a21.1858,21.1858,0,0,0,16.218-4.4784c6.9207-5.5242,9.8584-18.0264,12.4939-23.1908S83.5125,24.0992,83.5125,21.6082,84.6094,0,83.5125,0ZM46.9813,43.0789H37.0187c-2.04.0313-5.5893.8728-8.9958-3.2428a22.5244,22.5244,0,0,1,27.93.0313C52.554,43.95,49.0162,43.11,46.9813,43.0789Z" transform="translate(0)"></path></g></svg>