<svg xmlns="http://www.w3.org/2000/svg" id="f55b1e75-4bad-4f8e-b9c2-61f7476d538c" data-name="Layer 1" viewBox="0 0 67 67"><g id="b582fa4a-7e9b-448d-84f0-69e89437906d" data-name="Website-Chosen-Pages"><g id="a49ea748-84cc-4ce3-8a4e-d9bdccd17cc8" data-name="Home-Page"><path id="f595e4ab-26b0-4be2-8e09-7bc236a58aba" data-name="Path 6" d="M1.7612,66.9973c-1.4934-.2308-3.0736-33.5089,0-44.5732S10.0305,8.213,12.3631,6.7716,21.4869-1.7994,41.5837.4274c4.3272.69,6.3844,6.3442,6.3844,6.3442s16.0208,1.33,18.8572,19.0048c.95,11.1772-2.2408,41.2882-3.168,41.2209s-.36-13.3749-2.1158-17.331-6.8983-5.6731-5.5261-11.9082c.8711-2.4705,1.1479-3.6213,1.1479-3.6213L45.03,29.2175s-6.9315,5.3494-18.592,4.9193S11.7713,29.87,8.764,30.3785s-2.6,7.018-2.6692,9.2-1.5189,7.0649-2.464,10.0874S3.2546,67.2245,1.7612,66.9973Z" transform="translate(0 0)"></path></g></g></svg>