<svg xmlns="http://www.w3.org/2000/svg" id="Ebene_1" data-name="Ebene 1" viewBox="0 0 382.68 382.68"><defs><style>.cls-1{fill:#1d1d1b;}</style></defs><path class="cls-1" d="M99.35,355.41l-46-29.6a9.84,9.84,0,0,1-3-13.61L160.67,140.76a4.9,4.9,0,0,1,4.14-2.26h53.06a4.93,4.93,0,0,1,4.14,2.26L332.29,312.2a9.85,9.85,0,0,1-3,13.61l-46,29.6a4.93,4.93,0,0,1-6.81-1.48L203.76,240.82a14.77,14.77,0,0,0-24.84,0L106.16,353.93A4.93,4.93,0,0,1,99.35,355.41Z"></path><path class="cls-1" d="M304.56,96H78.12a4.93,4.93,0,0,1-4.78-3.73L60,38.72a9.85,9.85,0,0,1,9.56-12.23H313.16a9.84,9.84,0,0,1,9.55,12.23L309.33,92.24A4.91,4.91,0,0,1,304.56,96Z"></path></svg>