<svg xmlns="http://www.w3.org/2000/svg" id="b79cc66a-c05c-44d8-9410-2b7aa4d67cf1" data-name="Layer 1" viewBox="0 0 82 56"><path d="M75,0H7A6.9506,6.9506,0,0,0,.0809,8.009L0,8V23.4714q.0475,4.0248,3.24,4.0248c3.1927,0,3.7509-1.7245,3.7509-3.4736A3.508,3.508,0,0,1,10.52,20.73c1.8833,0,3.3,1.4215,3.3,6.196s-.8082,10.6456,3.144,10.6456,3.1911-5.7958,3.1911-7.0564S19.0427,20.73,23.48,20.73c3.1537-.0093,3.1443,2.6816,3.149,8.3429q.0047,5.6613,0,23.6854Q27.31,56,30.2675,56c2.9578,0,3.2139-3.1084,3.2139-3.6813,0-.5395-.2726-33.2242.37-38.3187H75A7,7,0,0,0,75,0Z" style="fill-rule:evenodd"></path></svg>