<svg xmlns="http://www.w3.org/2000/svg" id="Layer_1" height="512" viewBox="0 0 512 512" width="512" class=""><g><g><path d="m244.999 17.092c-64.477 0-123.125 24.92-166.871 65.638l1.524 360.14c32.616 29.848 73.336 50.975 118.476 59.721l97.52-.757c111.004-23.334 194.35-121.8 194.35-239.743 0-135.309-109.69-244.999-244.999-244.999z" fill="#89e56a" data-original="#89E56A" class="" style="fill:#0A1045" data-old_color="#89e56a"></path><path d="m116.087 372.782v-290.052h-37.959c-48.057 44.731-78.128 108.529-78.128 179.361 0 39.834 9.515 77.442 26.383 110.69h89.704z" fill="#47477f" data-original="#47477F" class="" style="fill:#7C809B" data-old_color="#47477f"></path><path d="m87.196 108.065c0-11.756 7.703-21.795 18.309-25.335h-27.377c-48.057 44.731-78.128 108.529-78.128 179.361 0 39.834 9.515 77.442 26.383 110.69h60.813z" fill="#3b3868" data-original="#3B3868" class="" style="fill:#535771" data-old_color="#3b3868"></path><path d="m463.336 82.73h-85.423v290.051h116.087v-259.388c0-16.935-13.729-30.663-30.664-30.663z" fill="#47477f" data-original="#47477F" class="" style="fill:#7C809B" data-old_color="#47477f"></path><path d="m29.945 148.526h86.142v224.256h-86.142z" fill="#ff7186" data-original="#FF7186" class="" style="fill:#FFBF6D" data-old_color="#ff7186"></path><path d="m29.945 148.526h57.251v224.256h-57.251z" fill="#ff4155" data-original="#FF4155" class="" style="fill:#FF9917" data-old_color="#ff4155"></path><path d="m377.913 148.526v224.256h86.143v-224.256z" fill="#ff7186" data-original="#FF7186" class="" style="fill:#FFBF6D" data-old_color="#ff7186"></path><path d="m29.945 144.64v6.104h86.142v-38.07h-65.244c-7.759 10.066-14.758 20.747-20.898 31.966z" fill="#47477f" data-original="#47477F" class="" style="fill:#7C809B" data-old_color="#47477f"></path><path d="m87.196 112.674h-36.353c-7.758 10.066-14.757 20.746-20.898 31.966v6.104h57.251z" fill="#3b3868" data-original="#3B3868" class="" style="fill:#535771" data-old_color="#3b3868"></path><path d="m463.337 112.674h-85.424v38.07h86.143v-37.351c0-.397-.323-.719-.719-.719z" fill="#47477f" data-original="#47477F" class="" style="fill:#7C809B" data-old_color="#47477f"></path><path d="m116.087 104.755h-58.877c-4.285 5.109-8.374 10.388-12.237 15.839h71.114c4.374 0 7.919-3.546 7.919-7.92.001-4.374-3.545-7.919-7.919-7.919z" fill="#3b3868" data-original="#3B3868" class="" style="fill:#535771" data-old_color="#3b3868"></path><path d="m87.196 108.065c0-1.121.078-2.225.214-3.311h-30.2c-4.285 5.109-8.374 10.388-12.237 15.839h42.223z" fill="#2d2d59" data-original="#2D2D59" class="" style="fill:#3F4469" data-old_color="#2d2d59"></path><path d="m22.025 160.445v203.292c2.634 5.769 5.491 11.414 8.549 16.932 4.078-.322 7.29-3.726 7.29-7.888v-241.567c-5.911 9.336-11.211 19.097-15.839 29.231z" fill="#2d2d59" data-original="#2D2D59" class="" style="fill:#3F4469" data-old_color="#2d2d59"></path><g><path d="m464.055 380.701c-4.374 0-7.919-3.546-7.919-7.92v-252.187h-78.223c-4.374 0-7.919-3.546-7.919-7.92s3.546-7.92 7.919-7.92h85.424c4.763 0 8.638 3.875 8.638 8.638v259.389c0 4.374-3.546 7.92-7.92 7.92z" fill="#3b3868" data-original="#3B3868" class="" style="fill:#535771" data-old_color="#3b3868"></path></g><g><path d="m68.146 142.372c-5.299 0-9.532-4.32-9.532-9.532 0-6.041 5.561-10.516 11.391-9.342 4.568.927 7.673 4.883 7.673 9.342.001 5.083-4.096 9.532-9.532 9.532z" fill="#ff4155" data-original="#FF4155" class="" style="fill:#FF9917" data-old_color="#ff4155"></path></g><g><path d="m94.598 142.372c-5.299 0-9.532-4.32-9.532-9.532 0-6.041 5.561-10.516 11.391-9.342 4.567.927 7.673 4.883 7.673 9.342.001 5.083-4.096 9.532-9.532 9.532z" fill="#ffdd40" data-original="#FFDD40" class=""></path></g><path d="m370.103 4.91h-189.881c-9.338 0-18.293 3.709-24.895 10.312l-34.815 34.815c-6.602 6.603-10.312 15.558-10.312 24.895v297.849h273.6c0-65.51 0-347.376 0-354.174 0-7.564-6.132-13.697-13.697-13.697z" fill="#e9efff" data-original="#E9EFFF" class="" style="fill:#EDF2F4" data-old_color="#e9efff"></path><path d="m181.418 323.932v-270.172c0-22.697 14.667-41.955 35.036-48.849h-36.231c-9.338 0-18.293 3.709-24.896 10.312l-34.815 34.815c-6.602 6.602-10.312 15.557-10.312 24.894v297.849h106.253c-20.368-6.894-35.035-26.152-35.035-48.849z" fill="#d3dcfb" data-original="#D3DCFB" class="" style="fill:#E4E9EB" data-old_color="#d3dcfb"></path><path d="m120.512 50.037c-6.603 6.603-10.312 15.558-10.312 24.895v4.431c0-15.849 15.603-18.619 23.396-19.014h18.393c7.538 0 13.649-6.111 13.649-13.649v-16.821c0-16.821 14.583-24.968 14.583-24.968-9.338 0-18.293 3.709-24.895 10.312z" fill="#bec8f7" data-original="#BEC8F7" class="" style="fill:#BDCACF" data-old_color="#bec8f7"></path><g><path d="m259.143 124.072h-24.287c-4.374 0-7.919-3.546-7.919-7.92s3.546-7.92 7.919-7.92h24.287c4.374 0 7.919 3.546 7.919 7.92.001 4.374-3.545 7.92-7.919 7.92z" fill="#bec8f7" data-original="#BEC8F7" class="" style="fill:#BDCACF" data-old_color="#bec8f7"></path></g><g><path d="m285.062 92.384h-76.125c-4.374 0-7.919-3.546-7.919-7.92s3.546-7.92 7.919-7.92h76.125c4.374 0 7.919 3.546 7.919 7.92.001 4.375-3.545 7.92-7.919 7.92z" fill="#bec8f7" data-original="#BEC8F7" class="" style="fill:#BDCACF" data-old_color="#bec8f7"></path></g><g><path d="m334.165 203.873h-174.33c-4.374 0-7.92-3.546-7.92-7.919 0-4.374 3.546-7.92 7.92-7.92h174.33c4.374 0 7.919 3.546 7.919 7.92 0 4.373-3.546 7.919-7.919 7.919z" fill="#bec8f7" data-original="#BEC8F7" class="" style="fill:#BDCACF" data-old_color="#bec8f7"></path></g><g><path d="m334.165 171.04h-174.33c-4.374 0-7.92-3.546-7.92-7.919 0-4.374 3.546-7.92 7.92-7.92h174.33c4.374 0 7.919 3.546 7.919 7.92 0 4.373-3.546 7.919-7.919 7.919z" fill="#bec8f7" data-original="#BEC8F7" class="" style="fill:#BDCACF" data-old_color="#bec8f7"></path></g><g><path d="m303.259 302.372h-143.424c-4.374 0-7.92-3.546-7.92-7.919 0-4.374 3.546-7.92 7.92-7.92h143.424c4.374 0 7.919 3.546 7.919 7.92 0 4.373-3.545 7.919-7.919 7.919z" fill="#bec8f7" data-original="#BEC8F7" class="" style="fill:#BDCACF" data-old_color="#bec8f7"></path></g><g><path d="m310.298 269.539h-150.463c-4.374 0-7.92-3.546-7.92-7.919 0-4.374 3.546-7.92 7.92-7.92h150.463c4.374 0 7.919 3.546 7.919 7.92.001 4.373-3.545 7.919-7.919 7.919z" fill="#bec8f7" data-original="#BEC8F7" class="" style="fill:#BDCACF" data-old_color="#bec8f7"></path></g><g><path d="m303.259 334.799h-143.424c-4.374 0-7.92-3.546-7.92-7.92s3.546-7.919 7.92-7.919h143.424c4.374 0 7.919 3.546 7.919 7.919 0 4.375-3.545 7.92-7.919 7.92z" fill="#bec8f7" data-original="#BEC8F7" class="" style="fill:#BDCACF" data-old_color="#bec8f7"></path></g><g><path d="m334.165 236.706h-174.33c-4.374 0-7.92-3.546-7.92-7.92s3.546-7.919 7.92-7.919h174.33c4.374 0 7.919 3.546 7.919 7.919 0 4.374-3.546 7.92-7.919 7.92z" fill="#bec8f7" data-original="#BEC8F7" class="" style="fill:#BDCACF" data-old_color="#bec8f7"></path></g><path d="m332.103 301.788c4.171.878 8.275 2.409 12.162 4.653s7.265 5.033 10.111 8.206l22.036-15.851c1.988-1.077 3.639-2.684 4.77-4.643l.524-.907c-.068-.037-.137-.066-.204-.105-3.862-2.23-6.131-6.152-6.418-10.289-.058-.84-.529-1.523-1.172-1.933-.708-.451-1.625-.57-2.459-.163-8.228 4.019-17.903-1.556-18.538-10.703-.064-.926-.626-1.66-1.371-2.048-.676-.352-1.503-.418-2.26-.049-3.726 1.82-8.257 1.816-12.12-.414-.067-.039-.127-.085-.193-.125l-.524.907c-1.131 1.959-1.697 4.192-1.636 6.452z" fill="#fcf9eb" data-original="#FCF9EB" class=""></path><path d="m362.557 281.659-.002-.013c-5.089-1.331-9.233-5.715-9.64-11.592-.064-.926-.626-1.66-1.371-2.048-.676-.352-1.503-.418-2.26-.049-3.726 1.82-8.257 1.816-12.119-.414-.067-.039-.127-.085-.193-.125l-.524.907c-1.131 1.959-1.697 4.192-1.636 6.452l-2.71 27.009c4.07.857 8.074 2.34 11.876 4.496 1.634-4.715 3.906-11.239 5.926-16.932 3.668-10.331 12.653-7.691 12.653-7.691z" fill="#fceca9" data-original="#FCECA9" class=""></path><path d="m344.727 305.642c-4.007-2.313-8.235-3.887-12.53-4.784l-2.195 21.884c-.461 3.984 4.06 6.594 7.28 4.203l17.854-12.843c-2.926-3.271-6.403-6.146-10.409-8.46z" fill="#5f5f9b" data-original="#5F5F9B" class=""></path><path d="m341.739 312.769s1.05-3.053 2.547-7.369c-3.876-2.177-7.951-3.677-12.09-4.542l-2.195 21.884c-.461 3.984 4.06 6.594 7.28 4.203l6.234-4.484c-3.823-3.654-1.776-9.692-1.776-9.692z" fill="#47477f" data-original="#47477F" class="" style="fill:#7C809B" data-old_color="#47477f"></path><g><path d="m455.395 62.305 44.734 25.827c.089.051.17.112.257.166l8.11-14.046c7.216-12.499 2.934-28.481-9.565-35.697-12.499-7.216-28.481-2.934-35.697 9.565l-8.109 14.046c.088.048.181.088.27.139z" fill="#ff4155" data-original="#FF4155" class="" style="fill:#FF9917" data-old_color="#ff4155"></path></g><path d="m200.447 440.652v47.342c0 5.029-.805 9.946-2.318 14.597 15.173 2.94 30.839 4.498 46.871 4.498 17.366 0 34.305-1.819 50.649-5.255-1.359-4.428-2.095-9.082-2.095-13.84v-47.342c-56.711 0-61.431 0-93.107 0z" fill="#bec8f7" data-original="#BEC8F7" class="" style="fill:#BDCACF" data-old_color="#bec8f7"></path><path d="m226.78 479.25c0-9.351 7.58-16.931 16.931-16.931h49.842v-21.667c-56.711 0-61.431 0-93.107 0v47.342c0 5.029-.805 9.946-2.319 14.597 9.372 1.816 18.934 3.101 28.652 3.82v-27.161z" fill="#a2b6f4" data-original="#A2B6F4" class="active-path" style="fill:#E4E9EB" data-old_color="#a2b6f4"></path><path d="m79.652 442.871h383.685c16.935 0 30.663-13.728 30.663-30.663v-41.644h-468.72c13.549 27.391 32.06 51.888 54.372 72.307z" fill="#e9efff" data-original="#E9EFFF" class="" style="fill:#EDF2F4" data-old_color="#e9efff"></path><path d="m87.196 417.338v-46.774h-61.916c13.549 27.391 32.06 51.888 54.371 72.307h26.454c-10.915-3.356-18.909-13.555-18.909-25.533z" fill="#d3dcfb" data-original="#D3DCFB" class="" style="fill:#E4E9EB" data-old_color="#d3dcfb"></path><ellipse cx="247" cy="406.717" fill="#bec8f7" rx="14.972" ry="14.972" transform="matrix(.231 -.973 .973 .231 -205.809 552.976)" data-original="#BEC8F7" class="" style="fill:#BDCACF" data-old_color="#bec8f7"></ellipse><path d="m142.926 27.623-22.414 22.414c-6.602 6.603-10.312 15.558-10.312 24.895v4.431c0-15.849 15.603-18.619 23.396-19.014h18.394c7.538 0 13.649-6.111 13.649-13.649-25.1 2.931-22.713-19.076-22.713-19.077z" fill="#a2b6f4" data-original="#A2B6F4" class="active-path" style="fill:#E4E9EB" data-old_color="#a2b6f4"></path><ellipse cx="494.992" cy="58.069" fill="#ff7186" rx="9.596" ry="9.596" transform="matrix(.229 -.974 .974 .229 325.204 526.642)" data-original="#FF7186" class="" style="fill:#FFBF6D" data-old_color="#ff7186"></ellipse><path d="m336.704 268.343c3.988 2.302 8.842 2.468 12.986.444.443-.216.944-.203 1.394.019l99.814-172.883-11.183-6.457-103.205 178.754c.066.04.127.085.194.123z" fill="#ffb332" data-original="#FFB332" class=""></path><path d="m336.704 268.343c3.988 2.302 8.842 2.468 12.986.444.443-.216.944-.203 1.394.019l21.439-37.133c-.849-.585-1.878-.905-2.95-.859-4.53.195-6.146-2.678-6.716-4.972-.163-.654-.461-1.251-.86-1.766l-25.487 44.144c.066.04.127.085.194.123z" fill="#ff9100" data-original="#FF9100" class="" style="fill:#FF9100"></path><path d="m351.189 268.851c.475.275.768.736.805 1.267.319 4.601 2.89 8.722 6.877 11.024s8.842 2.468 12.986.444c.478-.233 1.024-.21 1.5.064.034.02.06.047.093.069l99.814-172.883-22.367-12.913-99.814 172.883c.035.016.072.025.106.045z" fill="#ffdd40" data-original="#FFDD40" class=""></path><path d="m351.189 268.851c.475.275.768.736.806 1.267.319 4.601 2.89 8.722 6.877 11.024 3.988 2.302 8.842 2.468 12.986.444.478-.233 1.024-.21 1.499.064.034.02.06.047.093.069l22.1-38.278c-.979-.579-2.161-.828-3.339-.66-11.973 1.71-16.317-4.451-17.885-8.789-.348-.964-.994-1.762-1.804-2.32l-21.439 37.133c.035.017.072.026.106.046z" fill="#ffb332" data-original="#FFB332" class=""></path><path d="m374.163 282.917c.319 4.601 2.89 8.722 6.877 11.024.067.039.136.069.204.106l103.204-178.754-11.183-6.457-99.815 172.883c.416.279.678.705.713 1.198z" fill="#ffb332" data-original="#FFB332" class=""></path><path d="m374.163 282.917c.319 4.601 2.89 8.722 6.877 11.024.067.039.136.069.204.106l25.912-44.881c-.67-.187-1.381-.247-2.093-.162-4.543.548-6.699-1.598-7.721-3.667-.404-.819-1.04-1.452-1.792-1.896l-22.1 38.278c.416.279.678.705.713 1.198z" fill="#ff9100" data-original="#FF9100" class="" style="fill:#FF9100"></path><g><path d="m458.068 134.617c-1.344 0-2.705-.342-3.952-1.063l-15.051-8.69c-3.788-2.187-5.085-7.031-2.899-10.818 2.187-3.788 7.03-5.086 10.818-2.899l15.051 8.69c3.788 2.187 5.086 7.031 2.899 10.818-1.467 2.541-4.129 3.962-6.866 3.962z" fill="#fceca9" data-original="#FCECA9" class=""></path></g><g><path d="m484.14 115.826-44.733-25.827c-3.971-2.293-5.331-7.37-3.039-11.34 2.293-3.971 7.37-5.331 11.341-3.039l44.734 25.827c3.971 2.293 5.331 7.37 3.039 11.341-2.294 3.97-7.372 5.33-11.342 3.038z" fill="#bec8f7" data-original="#BEC8F7" class="" style="fill:#BDCACF" data-old_color="#bec8f7"></path></g><g><path d="m492.134 101.979-44.734-25.827c-3.971-2.293-5.331-7.37-3.039-11.341 2.293-3.971 7.37-5.331 11.341-3.039l44.733 25.827c3.971 2.293 5.331 7.37 3.039 11.341s-7.369 5.331-11.34 3.039z" fill="#e9efff" data-original="#E9EFFF" class="" style="fill:#EDF2F4" data-old_color="#e9efff"></path></g></g><style xmlns="" class="darkreader darkreader--fallback">html, body, body :not(iframe) { background-color: #181a1b !important; border-color: #776e62 !important; color: #e8e6e3 !important; }</style></g></svg>