<svg xmlns:dc="http://purl.org/dc/elements/1.1/" xmlns:cc="http://creativecommons.org/ns#" xmlns:rdf="http://www.w3.org/1999/02/22-rdf-syntax-ns#" xmlns:svg="http://www.w3.org/2000/svg" xmlns="http://www.w3.org/2000/svg" xmlns:sodipodi="http://sodipodi.sourceforge.net/DTD/sodipodi-0.dtd" xmlns:inkscape="http://www.inkscape.org/namespaces/inkscape" width="144" height="29" id="svg15" sodipodi:docname="Presta-CFM-btmoins_145.svg" style="overflow:hidden" inkscape:version="0.92.5 (2060ec1f9f, 2020-04-08)"><metadata></metadata><defs id="defs5"><clipPath id="clip0"><path d="m 826,2825 h 145 v 30 H 826 Z" id="path2" inkscape:connector-curvature="0" style="clip-rule:evenodd;fill-rule:evenodd"></path></clipPath></defs><g clip-path="url(#clip0)" transform="matrix(1,0,0,1.0357143,-826,-2926.9286)" id="g13"><path d="m 826,2833.51 c 0,-4.15 3.362,-7.51 7.51,-7.51 h 128.98 c 4.148,0 7.51,3.36 7.51,7.51 v 12.98 c 0,4.15 -3.362,7.51 -7.51,7.51 H 833.51 c -4.148,0 -7.51,-3.36 -7.51,-7.51 z" id="path7" inkscape:connector-curvature="0" style="fill:#4472c4;fill-rule:evenodd"></path><path d="m 873.779,2841.74 c -1.08,0 -1.62,0.36 -1.62,1.07 0,0.34 0.135,0.61 0.405,0.81 0.27,0.2 0.645,0.3 1.125,0.3 0.47,0 0.887,-0.11 1.252,-0.32 0.365,-0.22 0.623,-0.53 0.773,-0.93 v -0.93 z m 57.705,-3.07 c -0.69,0 -1.258,0.23 -1.703,0.69 -0.445,0.46 -0.667,1.06 -0.667,1.81 0,0.75 0.222,1.36 0.667,1.82 0.445,0.46 1.013,0.69 1.703,0.69 0.69,0 1.26,-0.23 1.71,-0.69 0.45,-0.46 0.675,-1.07 0.675,-1.82 0,-0.75 -0.225,-1.35 -0.675,-1.81 -0.45,-0.46 -1.02,-0.69 -1.71,-0.69 z m -39,0 c -0.69,0 -1.258,0.23 -1.703,0.69 -0.445,0.46 -0.667,1.06 -0.667,1.81 0,0.75 0.222,1.36 0.667,1.82 0.445,0.46 1.013,0.69 1.703,0.69 0.69,0 1.26,-0.23 1.71,-0.69 0.45,-0.46 0.675,-1.07 0.675,-1.82 0,-0.75 -0.225,-1.35 -0.675,-1.81 -0.45,-0.46 -1.02,-0.69 -1.71,-0.69 z m 45.4,-1.5 h 1.875 v 8.01 h -1.875 z m -39,0 h 1.875 v 8.01 h -1.875 z m -20.305,0 h 1.95 l 2.49,5.94 2.565,-5.94 h 1.8 l -3.435,8.01 h -1.935 z m 76.155,-0.09 c 0.55,0 1.1,0.06 1.65,0.19 0.55,0.12 1,0.29 1.35,0.5 l -0.72,1.42 c -0.68,-0.4 -1.445,-0.6 -2.295,-0.6 -0.55,0 -0.968,0.09 -1.253,0.25 -0.285,0.17 -0.427,0.38 -0.427,0.65 0,0.3 0.152,0.52 0.457,0.64 0.305,0.13 0.778,0.24 1.418,0.35 0.64,0.1 1.165,0.22 1.575,0.35 0.41,0.13 0.762,0.35 1.057,0.66 0.295,0.31 0.443,0.75 0.443,1.32 0,0.75 -0.325,1.35 -0.975,1.8 -0.65,0.45 -1.535,0.67 -2.655,0.67 -0.65,0 -1.285,-0.08 -1.905,-0.25 -0.62,-0.17 -1.115,-0.39 -1.485,-0.65 l 0.72,-1.42 c 0.36,0.24 0.792,0.43 1.297,0.58 0.505,0.14 1.003,0.21 1.493,0.21 1.12,0 1.68,-0.29 1.68,-0.88 0,-0.28 -0.143,-0.48 -0.428,-0.59 -0.285,-0.11 -0.742,-0.21 -1.372,-0.31 -0.66,-0.1 -1.198,-0.22 -1.613,-0.35 -0.415,-0.13 -0.775,-0.35 -1.08,-0.68 -0.305,-0.32 -0.457,-0.78 -0.457,-1.36 0,-0.76 0.317,-1.36 0.952,-1.82 0.635,-0.45 1.493,-0.68 2.573,-0.68 z m -8.305,0 c 1.01,0 1.82,0.29 2.43,0.88 0.61,0.59 0.915,1.47 0.915,2.63 v 4.59 h -1.875 v -4.35 c 0,-0.7 -0.165,-1.23 -0.495,-1.58 -0.33,-0.36 -0.8,-0.54 -1.41,-0.54 -0.69,0 -1.235,0.21 -1.635,0.63 -0.4,0.41 -0.6,1.01 -0.6,1.79 v 4.05 h -1.875 v -8.01 h 1.785 v 1.03 c 0.31,-0.37 0.7,-0.65 1.17,-0.84 0.47,-0.19 1,-0.28 1.59,-0.28 z m -14.945,0 c 0.82,0 1.555,0.17 2.205,0.52 0.65,0.35 1.157,0.84 1.522,1.46 0.365,0.62 0.548,1.32 0.548,2.11 0,0.79 -0.183,1.5 -0.548,2.13 -0.365,0.62 -0.872,1.11 -1.522,1.46 -0.65,0.35 -1.385,0.52 -2.205,0.52 -0.81,0 -1.54,-0.17 -2.19,-0.52 -0.65,-0.35 -1.158,-0.84 -1.523,-1.46 -0.365,-0.63 -0.547,-1.34 -0.547,-2.13 0,-0.79 0.182,-1.49 0.547,-2.11 0.365,-0.62 0.873,-1.11 1.523,-1.46 0.65,-0.35 1.38,-0.52 2.19,-0.52 z m -15.19,0 c 0.6,0 1.132,0.11 1.597,0.34 0.465,0.22 0.833,0.55 1.103,0.99 0.33,-0.42 0.755,-0.74 1.275,-0.98 0.52,-0.23 1.095,-0.35 1.725,-0.35 1.01,0 1.81,0.29 2.4,0.88 0.59,0.58 0.885,1.46 0.885,2.63 v 4.59 h -1.875 v -4.35 c 0,-0.7 -0.155,-1.23 -0.465,-1.58 -0.31,-0.36 -0.755,-0.54 -1.335,-0.54 -0.63,0 -1.135,0.21 -1.515,0.63 -0.38,0.41 -0.57,1 -0.57,1.77 v 4.07 h -1.875 v -4.35 c 0,-0.7 -0.155,-1.23 -0.465,-1.58 -0.31,-0.36 -0.755,-0.54 -1.335,-0.54 -0.64,0 -1.148,0.21 -1.523,0.62 -0.375,0.41 -0.562,1 -0.562,1.78 v 4.07 h -1.875 v -8.01 h 1.785 v 1.02 c 0.3,-0.36 0.675,-0.64 1.125,-0.83 0.45,-0.19 0.95,-0.28 1.5,-0.28 z m -8.775,0 v 1.78 c -0.16,-0.03 -0.305,-0.04 -0.435,-0.04 -0.73,0 -1.3,0.21 -1.71,0.64 -0.41,0.42 -0.615,1.03 -0.615,1.83 v 3.89 h -1.875 v -8.01 h 1.785 v 1.17 c 0.54,-0.84 1.49,-1.26 2.85,-1.26 z m -15.035,0 c 0.82,0 1.555,0.17 2.205,0.52 0.65,0.35 1.157,0.84 1.522,1.46 0.365,0.62 0.548,1.32 0.548,2.11 0,0.79 -0.183,1.5 -0.548,2.13 -0.365,0.62 -0.872,1.11 -1.522,1.46 -0.65,0.35 -1.385,0.52 -2.205,0.52 -0.81,0 -1.54,-0.17 -2.19,-0.52 -0.65,-0.35 -1.158,-0.84 -1.523,-1.46 -0.365,-0.63 -0.547,-1.34 -0.547,-2.13 0,-0.79 0.182,-1.49 0.547,-2.11 0.365,-0.62 0.873,-1.11 1.523,-1.46 0.65,-0.35 1.38,-0.52 2.19,-0.52 z m -18.54,0 c 1.18,0 2.082,0.28 2.707,0.85 0.625,0.56 0.938,1.41 0.938,2.55 v 4.7 h -1.77 v -0.98 c -0.23,0.35 -0.558,0.62 -0.983,0.81 -0.425,0.18 -0.937,0.27 -1.537,0.27 -0.6,0 -1.125,-0.1 -1.575,-0.3 -0.45,-0.21 -0.798,-0.49 -1.043,-0.86 -0.245,-0.36 -0.367,-0.78 -0.367,-1.24 0,-0.72 0.267,-1.29 0.802,-1.73 0.535,-0.43 1.378,-0.65 2.528,-0.65 h 2.07 v -0.12 c 0,-0.56 -0.168,-0.99 -0.503,-1.29 -0.335,-0.3 -0.832,-0.45 -1.492,-0.45 -0.45,0 -0.893,0.07 -1.328,0.21 -0.435,0.14 -0.802,0.33 -1.102,0.58 l -0.735,-1.36 c 0.42,-0.32 0.925,-0.57 1.515,-0.74 0.59,-0.17 1.215,-0.25 1.875,-0.25 z m -8.21,0 c 0.55,0 1.1,0.06 1.65,0.19 0.55,0.12 1,0.29 1.35,0.5 l -0.72,1.42 c -0.68,-0.4 -1.445,-0.6 -2.295,-0.6 -0.55,0 -0.968,0.09 -1.253,0.25 -0.285,0.17 -0.427,0.38 -0.427,0.65 0,0.3 0.152,0.52 0.457,0.64 0.305,0.13 0.778,0.24 1.418,0.35 0.64,0.1 1.165,0.22 1.575,0.35 0.41,0.13 0.762,0.35 1.057,0.66 0.295,0.31 0.443,0.75 0.443,1.32 0,0.75 -0.325,1.35 -0.975,1.8 -0.65,0.45 -1.535,0.67 -2.655,0.67 -0.65,0 -1.285,-0.08 -1.905,-0.25 -0.62,-0.17 -1.115,-0.39 -1.485,-0.65 l 0.72,-1.42 c 0.36,0.24 0.792,0.43 1.297,0.58 0.505,0.14 1.003,0.21 1.493,0.21 1.12,0 1.68,-0.29 1.68,-0.88 0,-0.28 -0.143,-0.48 -0.428,-0.59 -0.285,-0.11 -0.742,-0.21 -1.372,-0.31 -0.66,-0.1 -1.198,-0.22 -1.613,-0.35 -0.415,-0.13 -0.775,-0.35 -1.08,-0.68 -0.305,-0.32 -0.457,-0.78 -0.457,-1.36 0,-0.76 0.317,-1.36 0.952,-1.82 0.635,-0.45 1.493,-0.68 2.573,-0.68 z m -12.305,0 c 1.01,0 1.82,0.29 2.43,0.88 0.61,0.59 0.915,1.47 0.915,2.63 v 4.59 h -1.875 v -4.35 c 0,-0.7 -0.165,-1.23 -0.495,-1.58 -0.33,-0.36 -0.8,-0.54 -1.41,-0.54 -0.69,0 -1.235,0.21 -1.635,0.63 -0.4,0.41 -0.6,1.01 -0.6,1.79 v 4.05 h -1.875 v -8.01 h 1.785 v 1.03 c 0.31,-0.37 0.7,-0.65 1.17,-0.84 0.47,-0.19 1,-0.28 1.59,-0.28 z m -14.365,-2.4 h 7.665 v 1.63 h -5.715 v 2.73 h 5.07 v 1.61 h -5.07 v 2.89 h 5.925 v 1.64 h -7.875 z m 99.765,-1.08 c 0.34,0 0.625,0.1 0.855,0.31 0.23,0.2 0.345,0.46 0.345,0.77 0,0.33 -0.113,0.61 -0.338,0.83 -0.225,0.23 -0.512,0.34 -0.862,0.34 -0.34,0 -0.625,-0.11 -0.855,-0.32 -0.23,-0.22 -0.345,-0.49 -0.345,-0.81 0,-0.32 0.115,-0.58 0.345,-0.8 0.23,-0.21 0.515,-0.32 0.855,-0.32 z m -39,0 c 0.34,0 0.625,0.1 0.855,0.31 0.23,0.2 0.345,0.46 0.345,0.77 0,0.33 -0.113,0.61 -0.338,0.83 -0.225,0.23 -0.512,0.34 -0.862,0.34 -0.34,0 -0.625,-0.11 -0.855,-0.32 -0.23,-0.22 -0.345,-0.49 -0.345,-0.81 0,-0.32 0.115,-0.58 0.345,-0.8 0.23,-0.21 0.515,-0.32 0.855,-0.32 z" stroke-miterlimit="10" id="path9" inkscape:connector-curvature="0" style="fill:#ffffff;fill-rule:evenodd;stroke:#ffffff;stroke-linejoin:round;stroke-miterlimit:10;stroke-opacity:0.329412"></path><text font-size="11.6851" x="839.06403" y="2843.8201" id="text11" style="font-size:11.6850996px;font-family:Arial, Arial_MSFontService, sans-serif;fill:#000000;fill-opacity:0">En savoir moins</text></g></svg>