<svg xmlns:dc="http://purl.org/dc/elements/1.1/" xmlns:cc="http://creativecommons.org/ns#" xmlns:rdf="http://www.w3.org/1999/02/22-rdf-syntax-ns#" xmlns:svg="http://www.w3.org/2000/svg" xmlns="http://www.w3.org/2000/svg" xmlns:sodipodi="http://sodipodi.sourceforge.net/DTD/sodipodi-0.dtd" xmlns:inkscape="http://www.inkscape.org/namespaces/inkscape" width="144" height="29" id="svg15" sodipodi:docname="Presta-CFM-btplus_145.svg" style="overflow:hidden" inkscape:version="0.92.5 (2060ec1f9f, 2020-04-08)"><metadata></metadata><defs id="defs5"><clipPath id="clip0"><path d="m 656,2824 h 145 v 30 H 656 Z" id="path2" inkscape:connector-curvature="0" style="clip-rule:evenodd;fill-rule:evenodd"></path></clipPath></defs><g clip-path="url(#clip0)" transform="matrix(1.006993,0,0,1,-661.5944,-2825)" id="g13"><path d="m 657,2832.78 c 0,-4.3 3.482,-7.78 7.778,-7.78 h 127.444 c 4.296,0 7.778,3.48 7.778,7.78 v 13.44 c 0,4.3 -3.482,7.78 -7.778,7.78 H 664.778 c -4.296,0 -7.778,-3.48 -7.778,-7.78 z" id="path7" inkscape:connector-curvature="0" style="fill:#4472c4;fill-rule:evenodd"></path><path d="m 711.957,2841.15 c -1.08,0 -1.62,0.35 -1.62,1.06 0,0.34 0.135,0.61 0.405,0.81 0.27,0.2 0.645,0.3 1.125,0.3 0.47,0 0.888,-0.1 1.253,-0.32 0.365,-0.21 0.622,-0.52 0.772,-0.92 v -0.93 z m 42.335,-3.08 c -0.45,0 -0.855,0.11 -1.215,0.31 -0.36,0.21 -0.645,0.5 -0.855,0.88 -0.21,0.38 -0.315,0.82 -0.315,1.32 0,0.5 0.105,0.94 0.315,1.32 0.21,0.38 0.495,0.67 0.855,0.88 0.36,0.2 0.765,0.3 1.215,0.3 0.69,0 1.258,-0.23 1.703,-0.69 0.445,-0.46 0.667,-1.06 0.667,-1.81 0,-0.75 -0.222,-1.36 -0.667,-1.82 -0.445,-0.46 -1.013,-0.69 -1.703,-0.69 z m -23.63,0 c -0.69,0 -1.257,0.23 -1.702,0.69 -0.445,0.46 -0.668,1.07 -0.668,1.82 0,0.75 0.223,1.35 0.668,1.81 0.445,0.46 1.012,0.69 1.702,0.69 0.69,0 1.26,-0.23 1.71,-0.69 0.45,-0.46 0.675,-1.06 0.675,-1.81 0,-0.75 -0.225,-1.36 -0.675,-1.82 -0.45,-0.46 -1.02,-0.69 -1.71,-0.69 z m 33.34,-1.5 h 1.875 v 4.32 c 0,0.72 0.163,1.26 0.488,1.62 0.325,0.35 0.787,0.53 1.387,0.53 0.67,0 1.203,-0.21 1.598,-0.62 0.395,-0.42 0.592,-1.02 0.592,-1.8 v -4.05 h 1.875 v 8.01 h -1.785 v -1.02 c -0.3,0.36 -0.675,0.64 -1.125,0.84 -0.45,0.19 -0.935,0.29 -1.455,0.29 -1.07,0 -1.912,-0.3 -2.527,-0.89 -0.615,-0.6 -0.923,-1.48 -0.923,-2.65 z m -26.94,0 h 1.875 v 8.01 h -1.875 z m -20.305,0 h 1.95 l 2.49,5.94 2.565,-5.94 h 1.8 l -3.435,8.01 h -1.935 z m 60.155,-0.09 c 0.55,0 1.1,0.07 1.65,0.19 0.55,0.13 1,0.29 1.35,0.5 l -0.72,1.43 c -0.68,-0.4 -1.445,-0.6 -2.295,-0.6 -0.55,0 -0.967,0.08 -1.252,0.25 -0.285,0.16 -0.428,0.38 -0.428,0.65 0,0.3 0.153,0.51 0.458,0.64 0.305,0.12 0.777,0.24 1.417,0.35 0.64,0.1 1.165,0.21 1.575,0.34 0.41,0.13 0.763,0.35 1.058,0.66 0.295,0.31 0.442,0.75 0.442,1.32 0,0.75 -0.325,1.35 -0.975,1.8 -0.65,0.45 -1.535,0.68 -2.655,0.68 -0.65,0 -1.285,-0.09 -1.905,-0.26 -0.62,-0.17 -1.115,-0.38 -1.485,-0.64 l 0.72,-1.43 c 0.36,0.24 0.793,0.44 1.298,0.58 0.505,0.15 1.002,0.22 1.492,0.22 1.12,0 1.68,-0.3 1.68,-0.89 0,-0.28 -0.142,-0.47 -0.427,-0.58 -0.285,-0.11 -0.743,-0.22 -1.373,-0.32 -0.66,-0.1 -1.197,-0.21 -1.612,-0.34 -0.415,-0.13 -0.775,-0.36 -1.08,-0.68 -0.305,-0.33 -0.458,-0.78 -0.458,-1.36 0,-0.76 0.318,-1.37 0.953,-1.82 0.635,-0.46 1.492,-0.69 2.572,-0.69 z m -22.41,0 c 0.78,0 1.478,0.17 2.093,0.51 0.615,0.34 1.097,0.82 1.447,1.44 0.35,0.62 0.525,1.34 0.525,2.15 0,0.81 -0.175,1.53 -0.525,2.15 -0.35,0.63 -0.832,1.11 -1.447,1.45 -0.615,0.34 -1.313,0.51 -2.093,0.51 -1.08,0 -1.935,-0.36 -2.565,-1.08 v 3.88 h -1.875 v -10.92 h 1.785 v 1.05 c 0.31,-0.38 0.693,-0.66 1.148,-0.85 0.455,-0.19 0.957,-0.29 1.507,-0.29 z m -8.805,0 v 1.79 c -0.16,-0.03 -0.305,-0.05 -0.435,-0.05 -0.73,0 -1.3,0.22 -1.71,0.64 -0.41,0.43 -0.615,1.04 -0.615,1.84 v 3.88 h -1.875 v -8.01 h 1.785 v 1.17 c 0.54,-0.84 1.49,-1.26 2.85,-1.26 z m -15.035,0 c 0.82,0 1.555,0.18 2.205,0.53 0.65,0.35 1.158,0.83 1.523,1.45 0.365,0.62 0.547,1.33 0.547,2.12 0,0.79 -0.182,1.5 -0.547,2.12 -0.365,0.63 -0.873,1.11 -1.523,1.46 -0.65,0.35 -1.385,0.53 -2.205,0.53 -0.81,0 -1.54,-0.18 -2.19,-0.53 -0.65,-0.35 -1.157,-0.83 -1.522,-1.46 -0.365,-0.62 -0.548,-1.33 -0.548,-2.12 0,-0.79 0.183,-1.5 0.548,-2.12 0.365,-0.62 0.872,-1.1 1.522,-1.45 0.65,-0.35 1.38,-0.53 2.19,-0.53 z m -18.54,0 c 1.18,0 2.083,0.29 2.708,0.85 0.625,0.57 0.937,1.42 0.937,2.56 v 4.69 h -1.77 v -0.97 c -0.23,0.35 -0.557,0.62 -0.982,0.8 -0.425,0.19 -0.938,0.28 -1.538,0.28 -0.6,0 -1.125,-0.1 -1.575,-0.31 -0.45,-0.2 -0.797,-0.49 -1.042,-0.85 -0.245,-0.37 -0.368,-0.78 -0.368,-1.24 0,-0.72 0.268,-1.3 0.803,-1.73 0.535,-0.44 1.377,-0.66 2.527,-0.66 h 2.07 v -0.12 c 0,-0.56 -0.167,-0.99 -0.502,-1.29 -0.335,-0.3 -0.833,-0.45 -1.493,-0.45 -0.45,0 -0.892,0.07 -1.327,0.21 -0.435,0.14 -0.803,0.34 -1.103,0.59 l -0.735,-1.37 c 0.42,-0.32 0.925,-0.56 1.515,-0.73 0.59,-0.17 1.215,-0.26 1.875,-0.26 z m -8.21,0 c 0.55,0 1.1,0.07 1.65,0.19 0.55,0.13 1,0.29 1.35,0.5 l -0.72,1.43 c -0.68,-0.4 -1.445,-0.6 -2.295,-0.6 -0.55,0 -0.967,0.08 -1.252,0.25 -0.285,0.16 -0.428,0.38 -0.428,0.65 0,0.3 0.153,0.51 0.458,0.64 0.305,0.12 0.777,0.24 1.417,0.35 0.64,0.1 1.165,0.21 1.575,0.34 0.41,0.13 0.763,0.35 1.058,0.66 0.295,0.31 0.442,0.75 0.442,1.32 0,0.75 -0.325,1.35 -0.975,1.8 -0.65,0.45 -1.535,0.68 -2.655,0.68 -0.65,0 -1.285,-0.09 -1.905,-0.26 -0.62,-0.17 -1.115,-0.38 -1.485,-0.64 l 0.72,-1.43 c 0.36,0.24 0.793,0.44 1.298,0.58 0.505,0.15 1.002,0.22 1.492,0.22 1.12,0 1.68,-0.3 1.68,-0.89 0,-0.28 -0.142,-0.47 -0.427,-0.58 -0.285,-0.11 -0.743,-0.22 -1.373,-0.32 -0.66,-0.1 -1.197,-0.21 -1.612,-0.34 -0.415,-0.13 -0.775,-0.36 -1.08,-0.68 -0.305,-0.33 -0.458,-0.78 -0.458,-1.36 0,-0.76 0.318,-1.37 0.953,-1.82 0.635,-0.46 1.492,-0.69 2.572,-0.69 z m -12.305,0 c 1.01,0 1.82,0.3 2.43,0.89 0.61,0.59 0.915,1.46 0.915,2.62 v 4.59 h -1.875 v -4.35 c 0,-0.7 -0.165,-1.22 -0.495,-1.58 -0.33,-0.35 -0.8,-0.53 -1.41,-0.53 -0.69,0 -1.235,0.21 -1.635,0.62 -0.4,0.42 -0.6,1.01 -0.6,1.79 v 4.05 h -1.875 v -8.01 h 1.785 v 1.04 c 0.31,-0.37 0.7,-0.65 1.17,-0.84 0.47,-0.19 1,-0.29 1.59,-0.29 z m -14.365,-2.4 h 7.665 v 1.64 h -5.715 v 2.73 h 5.07 v 1.6 h -5.07 v 2.9 h 5.925 v 1.63 h -7.875 z m 82.82,-0.63 h 1.875 v 11.13 h -1.875 z M 738.007,2833 c 0.34,0 0.625,0.11 0.855,0.31 0.23,0.21 0.345,0.46 0.345,0.77 0,0.33 -0.112,0.61 -0.337,0.84 -0.225,0.22 -0.513,0.33 -0.863,0.33 -0.34,0 -0.625,-0.1 -0.855,-0.32 -0.23,-0.21 -0.345,-0.48 -0.345,-0.8 0,-0.32 0.115,-0.59 0.345,-0.8 0.23,-0.22 0.515,-0.33 0.855,-0.33 z" stroke-miterlimit="10" id="path9" inkscape:connector-curvature="0" style="fill:#ffffff;fill-rule:evenodd;stroke:#ffffff;stroke-linejoin:round;stroke-miterlimit:10;stroke-opacity:0.329412"></path><text font-size="14.49" x="677.242" y="2845.6799" id="text11" style="font-size:14.48999977px;font-family:Arial, Arial_MSFontService, sans-serif;fill:#000000;fill-opacity:0">En savoir plus</text></g></svg>