<svg xmlns="http://www.w3.org/2000/svg" id="ef8b6902-6611-41bc-a204-ca348582fea9" data-name="Layer 1" width="200" height="200" viewBox="0 0 200 200"><path d="M186.62,43.69l-26.51-27C156,12.39,148.41,13,143.3,18L129.88,31.17a3.5,3.5,0,0,0-.5.4l-104.86,104v0l-.06.06c-.06.06-.11.15-.08.11a3.5,3.5,0,0,0-.52.85,2,2,0,0,0-.1.26l-.06.13L11,186.92a3.21,3.21,0,0,0,3.11,4,3.06,3.06,0,0,0,.74-.09L67.5,178.35l.11,0a2.48,2.48,0,0,0,.62-.24l.2-.11a2.74,2.74,0,0,0,.5-.38l.09-.06L171.22,73.89l13.7-13.43a14.46,14.46,0,0,0,4.3-8.27A10,10,0,0,0,186.62,43.69Zm-22,27.66-2.31,2.27A2.15,2.15,0,0,0,162,74v0L66.68,170.75,52,157l98.69-99.83ZM31.42,137.72,127.67,42.3,132,38.12l14.23,14.47L47.3,152.6Zm28.79,35.77-41.67,9.88,10-39.52ZM182.86,51.33a8.09,8.09,0,0,1-2.43,4.54l-11.2,11L136.54,33.63l11.25-11c2.54-2.48,6.08-3.15,7.74-1.46L182,48.18A3.81,3.81,0,0,1,182.86,51.33Z"></path></svg>