<svg xmlns="http://www.w3.org/2000/svg" id="a478fd9f-ba89-484b-b2b2-19d4bb7f0a15" data-name="Layer 1" width="200" height="200" viewBox="0 0 200 200"><path d="M163.31,15.39H128A3.92,3.92,0,0,0,124,19.31v98.22a27.5,27.5,0,0,1-55,0V19.31a3.92,3.92,0,0,0-3.93-3.92H29.74a3.92,3.92,0,0,0-3.93,3.92v98.22a70.72,70.72,0,0,0,141.43,0V19.31A3.92,3.92,0,0,0,163.31,15.39Zm-31.42,7.85h27.49V46.81H131.89Zm-98.22,0h27.5V46.81H33.67ZM96.53,180.38a62.92,62.92,0,0,1-62.86-62.85V54.67h27.5v62.86a35.36,35.36,0,0,0,70.72,0V54.67h27.49v62.86A62.92,62.92,0,0,1,96.53,180.38Z"></path></svg>