<svg xmlns="http://www.w3.org/2000/svg" id="b9707523-e7bb-4f16-9642-7282ba3816e8" data-name="Layer 1" width="200" height="200" viewBox="0 0 200 200"><path d="M151.65,36.31H133.2V32.63h0a11.07,11.07,0,0,0-11.06-11.07h-3.69V17.87h0A11.09,11.09,0,0,0,107.38,6.8H92.62A11.08,11.08,0,0,0,81.55,17.87v3.69H77.86A11.08,11.08,0,0,0,66.79,32.63v3.69H48.34A11.08,11.08,0,0,0,37.28,47.38V180.2h0a11.09,11.09,0,0,0,11.07,11.07h103.3a11.09,11.09,0,0,0,11.07-11.07V47.38h0A11.09,11.09,0,0,0,151.65,36.31ZM74.17,32.63h0a3.69,3.69,0,0,1,3.69-3.69h0c12.21,0,11.07.9,11.07-11.07h0a3.69,3.69,0,0,1,3.69-3.69h14.76a3.69,3.69,0,0,1,3.69,3.69c0,12.21-.91,11.07,11.07,11.07h0a3.69,3.69,0,0,1,3.69,3.69V47.39h0a3.7,3.7,0,0,1-3.69,3.69H77.87a3.69,3.69,0,0,1-3.69-3.69h0ZM155.34,180.2h0a3.69,3.69,0,0,1-3.69,3.69H48.34a3.69,3.69,0,0,1-3.69-3.69h0V47.38h0a3.7,3.7,0,0,1,3.69-3.69H66.79v3.69h0A11.08,11.08,0,0,0,77.86,58.45h44.27A11.08,11.08,0,0,0,133.2,47.38V43.7h18.45a3.69,3.69,0,0,1,3.69,3.69Zm-51.73-96A3.7,3.7,0,0,1,100,88H63.1a3.69,3.69,0,0,1,0-7.38H100A3.69,3.69,0,0,1,103.61,84.2Zm0,29.52a3.69,3.69,0,0,1-3.61,3.76H63.1a3.69,3.69,0,0,1,0-7.37H100A3.69,3.69,0,0,1,103.61,113.72Zm-3.46,25.9A3.69,3.69,0,0,1,100,147H62.94a3.69,3.69,0,0,1,.16-7.38h37.05Zm34.13-64.05a3.69,3.69,0,0,1,5.22,5.22h0L128,92.31a3.69,3.69,0,0,1-5.22,0h0l-6.92-6.92h0a3.69,3.69,0,1,1,5.21-5.22h0l4.33,4.31,8.9-8.91Zm0,29.86a3.69,3.69,0,0,1,5.22,5.22h0c-16,16-12.23,16-23.67,4.6a3.69,3.69,0,0,1,5.22-5.22h0l4.32,4.32,8.91-8.92Z"></path></svg>