<svg xmlns="http://www.w3.org/2000/svg" id="b5fe9477-cc4a-4fd7-8b9d-ae0531e1e40b" data-name="Layer 1" width="200" height="200" viewBox="0 0 200 200"><path d="M167.43,144.37a13.23,13.23,0,0,0-2.44-1.92l-.07,0-30-17.63a11.66,11.66,0,0,0-7.67-1.36,14.5,14.5,0,0,0-7.33,3.31l-.17.17-1.61,1.75c-2.15,2.35-5.76,6.29-6.5,6.84-6.79-1.72-17.92-10.3-27.52-19.84a113.48,113.48,0,0,1-13.25-15.46c-2.8-4.09-4.46-7.35-4.24-9l7.41-7.42a13.47,13.47,0,0,0,3.68-7.05A11.4,11.4,0,0,0,76.52,69L60,37.71l-.16-.25a14,14,0,0,0-2-2.47A11.09,11.09,0,0,0,52,31.82a9.61,9.61,0,0,0-6.9,1.46A12.61,12.61,0,0,0,43,35L22.45,55.54a17,17,0,0,0-5.09,11,41.42,41.42,0,0,0,.52,11c3.39,21.33,19.3,46.48,39.54,67s44.75,36.39,65.72,39.6c3.52.54,1.47.21.9.12l.2,0c5.83.9,11.92,1.85,17.91-1a18.06,18.06,0,0,0,2.58-1.53,13.81,13.81,0,0,0,2.17-1.94l20.44-20.29h0a12.54,12.54,0,0,0,1.76-2.22,9.9,9.9,0,0,0,1.46-6.83A10.78,10.78,0,0,0,167.43,144.37Zm-4.52,9a5.1,5.1,0,0,1-.73.87l-20.57,20.43h0l-.14.14a6.91,6.91,0,0,1-1,.92,10.92,10.92,0,0,1-1.47.87c-3.95,1.9-8.89,1.14-13.61.4-2.39-.37,2.84.42-1.12-.19-19.38-3-42.46-18.08-61.6-37.46-19.28-19.53-34.39-43.22-37.53-63a34.35,34.35,0,0,1-.46-9,10,10,0,0,1,2.86-6.5l.14-.12L48.23,40.15a4.73,4.73,0,0,1,.84-.7,2.4,2.4,0,0,1,1.73-.4,3.76,3.76,0,0,1,1.92,1.14,6.53,6.53,0,0,1,.86,1l16.5,31.31,0,.09a4.21,4.21,0,0,1,.41,2.83,6.06,6.06,0,0,1-1.65,3.15h0l-7.58,7.58h0a6.65,6.65,0,0,0-1.82,3.47c-.74,3.67,1.42,8.9,5.36,14.65A121,121,0,0,0,79,120.83c10.76,10.69,23.7,20.35,31.85,22l.72.07c3.47,0,8.89-5.9,12-9.3.49-.54.9-1,1.3-1.4a6.88,6.88,0,0,1,3.45-1.5,4.41,4.41,0,0,1,2.88.38h0l30,17.62a6.13,6.13,0,0,1,1.09.87,3.66,3.66,0,0,1,1.08,1.93A2.76,2.76,0,0,1,162.91,153.39Zm17.84-133h0a7,7,0,0,0-4.93-2H101.65a7,7,0,0,0-7,7V57.44a7,7,0,0,0,7,7H155l3.54,17,2.14,10.26,4.71-9.36,9.06-18h1.37a6.94,6.94,0,0,0,4.91-2h0a7,7,0,0,0,2-4.93V25.31A7,7,0,0,0,180.75,20.4Zm-5.3,36.68H170l-1,2-5.35,10.61-2-9.71L161,57.08H102V25.69h73.41Z"></path></svg>