<svg xmlns="http://www.w3.org/2000/svg" id="f7ee3616-e104-4f96-8f9e-e2c4b9d96a4a" data-name="Layer 1" width="200" height="200" viewBox="0 0 200 200"><path d="M143.28,142.41,122.4,43.72V22.09h0a11,11,0,0,0-11-11H82a11,11,0,0,0-11,11v21.6L48.86,140.92h0a11,11,0,0,0,3,10.23l37.12,37.12h0a11,11,0,0,0,15.57,0l35.79-35.79h0a11,11,0,0,0,3-10.07Zm-81.91,7.92,62.8-62.8,5.44,25.71L76.94,165.9ZM77.64,47.77h34.41L67.47,92.35ZM82,18.42h29.35a3.67,3.67,0,0,1,3.67,3.67h0V40.43H78.37V22.09h0A3.67,3.67,0,0,1,82,18.42ZM64.4,105.79l52.52-52.51L122.36,79l-66,66C55.41,143.17,55.45,145.05,64.4,105.79Zm34.91,77.29h0a3.75,3.75,0,0,1-5.19,0l-12-12,49.29-49.29,4.68,22.14c.57,2.68,1.87.49-36.79,39.15Z"></path></svg>