<svg xmlns="http://www.w3.org/2000/svg" id="Layer_1" data-name="Layer 1" width="200" height="200" viewBox="0 0 200 200"><path d="M149.64,169.86a3,3,0,0,0,2.17-.89,3.07,3.07,0,0,0,.9-2.18V21.11A3.08,3.08,0,0,0,149.64,18H40a3.07,3.07,0,0,0-3.07,3.07V166.79A3.07,3.07,0,0,0,40,169.86Zm-3.07-6.14H43V24.18H146.57ZM171.56,40V185.65a3.07,3.07,0,0,1-3.07,3.08H58.8a3.08,3.08,0,0,1-3.07-3.08v-11.3a3.07,3.07,0,0,1,6.14.17v8.06H165.42V43h-6.35a3.06,3.06,0,0,1-3-3,3,3,0,0,1,.84-2.19,3,3,0,0,1,2.15-1h9.44A3.07,3.07,0,0,1,171.56,40ZM58.37,55.47a3.06,3.06,0,0,1,3-3.15H126.5a3.07,3.07,0,0,1,0,6.14H61.36A3.08,3.08,0,0,1,58.37,55.47Zm.71,27.74A3.08,3.08,0,0,1,61.39,78h65.26a3.07,3.07,0,0,1,3,3.16,3.09,3.09,0,0,1-3.07,3H61.23A3.09,3.09,0,0,1,59.08,83.21ZM129.51,105a3.08,3.08,0,0,1-3,3.15H61.36a3.07,3.07,0,0,1,0-6.14H126.5A3.08,3.08,0,0,1,129.51,105ZM58.24,134.15a3.07,3.07,0,0,1,3.15-3H97.51a3.07,3.07,0,0,1-.08,6.14H61.23A3.07,3.07,0,0,1,58.24,134.15Z"></path></svg>