<svg xmlns="http://www.w3.org/2000/svg" id="e88cd2ec-b25b-4e39-bee3-ac19de6f67ac" data-name="Layer 1" width="200" height="200" viewBox="0 0 200 200"><path class="e7ceac66-17cf-40f2-80bb-cf4cf12712f3" d="M65.55,82.17a17.26,17.26,0,1,0-5.08-12.23,17.27,17.27,0,0,0,5.08,12.23Zm5.12-19.35h0a10,10,0,1,1-3,7.12A10,10,0,0,1,70.67,62.82ZM185.12,163.06a11.68,11.68,0,0,0-4.42-7.72l0,0h0l-44.1-35.36-3.21-2.58-2.14,3.5a60.52,60.52,0,0,1-4,5.76,64,64,0,0,1-4.72,5.3h0l-.39.38-.43.41-3,2.86,3.23,2.6,44.49,35.65.05,0a11.81,11.81,0,0,0,3.37,1.81,11.52,11.52,0,0,0,3.77.63,11.68,11.68,0,0,0,9.31-4.61h0A11.64,11.64,0,0,0,185.12,163.06Zm-8.06,4.23h0v0a4.61,4.61,0,0,1-5,1.5,4.65,4.65,0,0,1-1.21-.63L129.47,135c1.17-1.28,2.29-2.59,3.37-3.95h0c.79-1,1.55-2,2.27-3L176.17,161l.07.05h0a4.51,4.51,0,0,1,1.69,3A4.45,4.45,0,0,1,177.06,167.29ZM101.32,94.52a28.6,28.6,0,0,1,2.87,14.58l-.16,3.48H51.53l-.16-3.46a28.49,28.49,0,0,1,2.86-14.58A25.16,25.16,0,0,1,64.3,84.24h0l.44-.25,3.57,6.29-.41.23a18.15,18.15,0,0,0-7.26,7.35,19.64,19.64,0,0,0-2,7.47H96.92a19.51,19.51,0,0,0-2-7.48,18.13,18.13,0,0,0-7.26-7.34h0l-.42-.24L90.82,84l.43.25h0A25.15,25.15,0,0,1,101.32,94.52ZM127,115.91l0,0c.72-1.21,1.43-2.48,2.1-3.8s1.33-2.69,1.86-4a59.81,59.81,0,0,0,3.52-11.39,60.48,60.48,0,0,0,1.2-11.92h0A59.63,59.63,0,0,0,131,61.47h0c-.11-.25-.32-.74-.67-1.5-.21-.46-.44-.94-.7-1.46h0a60,60,0,0,0-11.5-16.1,56.61,56.61,0,0,0-4.61-4.15,59.53,59.53,0,0,0-5-3.67c-1.43-.94-3-1.84-4.61-2.72s-3.21-1.62-4.82-2.31h0a60.05,60.05,0,0,0-46.66,0c-1.66.71-3.23,1.46-4.73,2.25s-3,1.71-4.54,2.67a59.38,59.38,0,0,0-5.09,3.69h0a60.34,60.34,0,0,0-4.68,4.23A61,61,0,0,0,26.94,50a60.1,60.1,0,0,0-5.07,8.53h0c-.17.35-.38.8-.68,1.45s-.52,1.14-.68,1.52A59,59,0,0,0,17,72.88a59.8,59.8,0,0,0,0,23.84,58.3,58.3,0,0,0,3.52,11.4A60.21,60.21,0,0,0,26,118.27a61.08,61.08,0,0,0,7.36,8.93h0a60.9,60.9,0,0,0,8.91,7.34A60.17,60.17,0,0,0,52.42,140h0a59.32,59.32,0,0,0,11.41,3.53h0a60.3,60.3,0,0,0,23.84,0A60.31,60.31,0,0,0,108.48,135a60.77,60.77,0,0,0,8.39-6.6l.63-.6.65-.63h0a59.34,59.34,0,0,0,4.77-5.38A61.51,61.51,0,0,0,127,115.91Zm-6.18-3.77a53.08,53.08,0,0,1-3.62,5.2,52.36,52.36,0,0,1-4.2,4.73h0l-.56.55-.55.53h0a52.9,52.9,0,0,1-7.37,5.81,52.79,52.79,0,0,1-49.29,4.4,53.48,53.48,0,0,1-16.79-11.31h0A53.08,53.08,0,0,1,32,114.21a52.37,52.37,0,0,1-4.82-8.9,51.57,51.57,0,0,1-3.1-10,53.73,53.73,0,0,1-1-10.51,52.87,52.87,0,0,1,1-10.5,51.75,51.75,0,0,1,3.1-10h0c.23-.55.42-1,.57-1.29l.63-1.31a52.74,52.74,0,0,1,4.46-7.48,53.52,53.52,0,0,1,5.65-6.65v0a53.56,53.56,0,0,1,4.13-3.69h0a49.11,49.11,0,0,1,4.48-3.25c1.27-.82,2.6-1.6,4-2.34s2.8-1.41,4.18-2a51.57,51.57,0,0,1,10-3.1h0a52.64,52.64,0,0,1,31,3.07c1.49.63,2.92,1.31,4.26,2s2.66,1.5,4,2.4A51.93,51.93,0,0,1,113,47.51a52.94,52.94,0,0,1,5.66,6.67,51.75,51.75,0,0,1,4.45,7.48l0,0q.28.57.6,1.26c.08.17.27.63.56,1.31h0a51.57,51.57,0,0,1,3.1,10,53,53,0,0,1,1,10.51h0a53,53,0,0,1-1,10.51,51.87,51.87,0,0,1-3.1,10h0c-.52,1.25-1,2.38-1.61,3.48S121.51,111,120.84,112.14Z"></path></svg>